<?xml version="1.0" encoding="UTF-8"?>
<svg id="Capa_1" data-name="Capa 1" xmlns="http://www.w3.org/2000/svg" viewBox="0 0 19.45 18.4">
  <path d="m.38.03C.22.08.11.18.04.33c-.03.07-.04.1-.04.21,0,.11,0,.14.05.22.05.11.15.21.25.26.09.04.05.04,1.73.32.58.1,1.06.18,1.08.18.02,0,.04.03.06.07.01.04.17.43.35.88s.42,1.07.55,1.38.34.87.49,1.23.36.92.49,1.23.34.87.49,1.23.36.92.49,1.23c.42,1.07.74,1.88,1.04,2.61.16.41.29.75.29.77,0,.03-.14.14-.66.55-.36.28-.72.56-.78.62-.38.33-.63.75-.71,1.18-.03.15-.02.44,0,.57.03.16.14.36.31.58.16.21.4.4.64.5.06.03.11.05.12.05,0,0-.03.02-.08.03-.5.16-.84.69-.76,1.19.04.24.13.42.3.6.54.57,1.49.42,1.82-.29.16-.33.13-.71-.06-1.02-.07-.12-.21-.26-.32-.33-.04-.03-.08-.06-.08-.06,0,0,1.87,0,4.15,0,2.28,0,4.4.02,4.71.02.53,0,.56,0,.52.03-.02.01-.08.07-.14.12-.46.43-.46,1.15,0,1.58.54.51,1.43.36,1.76-.3.11-.22.15-.48.1-.71-.03-.15-.13-.36-.23-.48-.07-.08-.22-.21-.24-.21,0,0-.01,0-.01-.01,0,0,.19-.02.49-.02.56,0,.56,0,.72-.15.12-.11.17-.23.17-.39,0-.11,0-.13-.05-.22-.06-.12-.16-.21-.28-.27l-.09-.04h-1.69c-.93-.02-3.63-.03-6-.04-3.24,0-4.32-.02-4.37-.03-.25-.06-.38-.28-.34-.54.02-.13.12-.33.22-.43.04-.05.53-.44,1.09-.87l1.01-.79,1.64-.13c.9-.07,2.86-.22,4.35-.34s2.93-.23,3.19-.25c.26-.02.51-.05.55-.06.16-.05.31-.19.36-.36.02-.05.05-.3.08-.55.03-.25.07-.61.1-.81.03-.2.09-.71.14-1.12.05-.42.15-1.21.21-1.75.07-.54.15-1.22.18-1.5.04-.32.06-.54.05-.59-.03-.25-.25-.45-.52-.47-.05,0-.8-.02-1.67-.04-.87-.02-1.85-.04-2.18-.05-.33,0-.88-.02-1.22-.03-.34,0-.9-.02-1.23-.03-.34,0-.89-.02-1.24-.03-1.45-.04-4.36-.11-5.04-.12-.41,0-.78-.02-.83-.02-.09,0-.09,0-.12-.07-.02-.03-.13-.32-.25-.63-.12-.31-.33-.83-.46-1.16s-.33-.83-.44-1.12c-.12-.3-.23-.57-.25-.6-.04-.07-.14-.16-.22-.2-.09-.05.06-.02-2.01-.37C1.12.09.56,0,.52,0,.49,0,.42.01.38.03Zm6.57,5.19l.67.02v.96s0,.96,0,.96h-1.02l-.17-.42c-.09-.23-.26-.67-.38-.97s-.22-.55-.22-.56c0-.01.29-.01,1.11.01Zm2.14.05c.32,0,.63.02.69.02h.1v1.87h-1.87v-1.92h.25c.14.01.51.02.83.03Zm2,.05c.36,0,.74.02.86.02h.2v1.82h-1.87v-1.85h.08s.37,0,.73.02Zm3.29.09s.02.19.02.88v.87h-1.87v-1.8l.92.02c.5.01.93.02.94.03Zm1.48.04c.32,0,.62.02.68.02h.1v1.7h-1.87v-1.75h.26c.14.01.51.02.83.03Zm2.32.05c.3,0,.43.02.43.03,0,.01-.04.38-.1.82-.05.44-.1.81-.1.81s-.31,0-.68,0h-.68v-1.69h.35c.19.02.55.02.78.03Zm-10.55,2.91v.87h-.09s-.09,0-.09,0l-.12-.3c-.06-.16-.21-.54-.33-.84-.12-.3-.22-.56-.22-.57,0-.01.09-.02.43-.02h.43v.87Zm2.25,0v.87h-1.87v-1.73h1.87v.87Zm2.26,0v.86s-.93,0-.93,0h-.93s0-.86,0-.86v-.87h1.87v.86Zm2.25,0v.87h-1.87v-1.73h1.87v.87Zm2.25,0v.87h-1.87v-1.73h1.87v.87Zm1.71-.82s-.05.39-.1.8-.09.78-.1.82v.07h-1.12v-1.73h1.32v.05Zm-10.73,2.1s0,.03-.02.01c-.02-.03-.02-.05,0-.05,0,0,.02.02.02.03Zm2.25.86v.9h-.03s-.32.03-.67.06c-.35.03-.68.06-.72.07s-.09.02-.09.02c0,0-.08-.21-.18-.45l-.18-.45v-1.04h1.87v.9Zm2.27-.09c0,.63,0,.81-.02.81-.02,0-1.76.14-1.82.14h-.04v-.88s0-.88,0-.88h1.87v.81Zm2.25-.09v.72h-.09s-.45.05-.89.08-.82.06-.85.07h-.05s0-.79,0-.79v-.8h1.87v.72Zm2.25-.09v.63h-.03s-.4.04-.86.08-.86.07-.9.07h-.08s0-.7,0-.7v-.71h1.87v.63Zm1.45-.58s-.03.25-.06.5c-.03.25-.06.49-.07.53v.08s-.41.03-.41.03c-.22.02-.42.03-.46.03h-.07s0-.61,0-.61v-.62h1.07v.05Zm-11.32,7.02c.41.19.51.71.21,1.03-.31.32-.85.25-1.05-.14-.19-.36,0-.81.4-.92.04-.01.12-.02.21-.02.12,0,.16.01.24.05Zm10.51-.03c.24.08.4.26.44.52.05.26-.1.55-.35.67-.34.17-.74.03-.89-.3-.05-.1-.05-.11-.05-.27s0-.17.05-.27c.08-.17.2-.28.38-.34.13-.04.29-.05.41,0Z"/>
  <path d="m6.38,16.99c-.24.09-.31.43-.11.59.22.19.56.05.59-.23.02-.26-.23-.45-.48-.36Z"/>
  <path d="m16.96,16.99c-.08.03-.11.06-.16.13-.13.17-.06.41.13.51.24.12.52-.04.52-.3,0-.08-.04-.19-.1-.25-.09-.09-.27-.13-.38-.08Z"/>
</svg>