<?xml version="1.0" encoding="utf-8"?>
<!-- Generator: Adobe Illustrator 27.2.0, SVG Export Plug-In . SVG Version: 6.00 Build 0)  -->
<svg version="1.1" id="Capa_1" xmlns="http://www.w3.org/2000/svg" xmlns:xlink="http://www.w3.org/1999/xlink" x="0px" y="0px"
	 viewBox="0 0 26.5 33" style="enable-background:new 0 0 26.5 33;" xml:space="preserve">
<style type="text/css">
	.st0{opacity:0.9864;enable-background:new    ;}
</style>
<g id="g3997_00000047763985342976797650000010644235378626391713_" transform="matrix(.70711 -.70711 .70711 .70711 -159.87 142.12)">
	<path id="path3459_00000131340290660332407140000001075644849070232997_" class="st0" d="M204.7,29.8v1.9h-3.8v3.8h3.8v1.9l3.8-3.8
		L204.7,29.8z"/>
	<path id="path3464_00000034776845451147691240000000562773097696886956_" class="st0" d="M217.7,37.4v-1.9h3.8v-3.8h-3.8v-1.9
		l-3.8,3.8L217.7,37.4z"/>
	<path id="path3466_00000073711717741192555220000003058337230409493392_" class="st0" d="M207.4,40.1h1.9v3.8h3.8v-3.8h1.9
		l-3.8-3.8L207.4,40.1z"/>
	<path id="path3468_00000088125340994222093630000012781989278681347006_" class="st0" d="M215,27.1h-1.9v-3.8h-3.8v3.8h-1.9
		l3.8,3.8L215,27.1z"/>
	<path id="path3470_00000054252992935841145800000008224256399139086253_" class="st0" d="M213.1,33.6c0,1-0.8,1.9-1.9,1.9
		s-1.9-0.8-1.9-1.9c0-1,0.8-1.9,1.9-1.9S213.1,32.5,213.1,33.6z"/>
</g>
</svg>
