<?xml version="1.0" encoding="utf-8"?>
<!-- Generator: Adobe Illustrator 27.2.0, SVG Export Plug-In . SVG Version: 6.00 Build 0)  -->
<svg version="1.1" id="Capa_1" xmlns="http://www.w3.org/2000/svg" xmlns:xlink="http://www.w3.org/1999/xlink" x="0px" y="0px"
	 viewBox="0 0 26.5 33" style="enable-background:new 0 0 26.5 33;" xml:space="preserve">
<g transform="translate(0.000000,1280.000000) scale(0.100000,-0.100000)">
	<path d="M82.7,12749.6c-9.4-3.9-17.3-9.1-23.7-15.5c-5.9-5.9-9.8-11.8-12.4-18.9c-1.7-4.8-2.4-8.8-2.4-14.3c0-4.9,0.3-7.4,1.7-12.1
		c4.1-13.9,15.5-26.3,31.8-34.3c2.6-1.3,6.5-3,7.5-3.3c0.1,0-0.5,0.6-1.3,1.3c-9.2,8.7-16.2,20.7-19.1,32.6c-1.2,5-1.7,8.7-1.9,14.1
		c-0.3,11.2,2.2,22,7.5,32c3.2,6.2,6.9,11.1,12,16.4c1.6,1.7,2.9,3,2.8,3C85.2,12750.6,84,12750.2,82.7,12749.6z"/>
	<path d="M182.2,12747.7c5.1-5.3,8.8-10.2,12-16.4c6.8-12.9,9.1-27.8,6.5-42.1c-2.4-13.5-9.7-26.9-20-36.6c-0.8-0.8-1.4-1.4-1.3-1.3
		c0.9,0.3,4.9,2,7.5,3.3c16.2,8,27.7,20.3,31.8,34.3c1.4,4.6,1.7,7.1,1.7,12.1c0,2.9-0.1,4.6-0.3,6.2c-2.1,13.2-10,25-23,34.3
		c-4.1,2.9-10.2,6.3-15.4,8.4l-2.4,0.9L182.2,12747.7z"/>
	<path d="M101.1,12735c-20.3-10.2-28.7-31-19.7-49.2c3.2-6.6,8.8-12.6,15.7-16.9c1.5-0.9,6.5-3.5,6.8-3.5c0.1,0-0.4,0.6-1.1,1.3
		c-4.9,5.3-9,12.6-11,19.7c-0.7,2.4-1.4,5.7-1.7,8.4c-0.4,2.9-0.3,9.9,0.1,12.8c1.5,10.5,5.5,19.3,12.3,27.1
		c0.8,0.9,1.4,1.7,1.4,1.7C103.9,12736.4,102.7,12735.8,101.1,12735z"/>
	<path d="M162,12734.7c6.8-7.8,10.8-16.6,12.3-27.1c0.4-2.9,0.5-9.9,0.1-12.8c-0.3-2.7-1-6-1.7-8.4c-2.1-7.1-6.2-14.4-11-19.7
		c-0.6-0.7-1.1-1.3-1.1-1.3c0.3,0,5.3,2.6,6.8,3.5c6.9,4.3,12.5,10.2,15.7,16.9c6,12.2,4.3,26.1-4.4,37c-4.2,5.3-10,9.8-16.5,12.8
		l-1.7,0.8L162,12734.7z"/>
	<path d="M130.6,12715.2c-5-0.9-9.3-5.9-9.3-10.9c0-1.6,0.3-2.9,1.2-4.7c1.3-2.8,3.9-5,7-5.9l1-0.3l0.1-18.4l0-18.5l-0.7-0.6
		c-0.4-0.3-0.8-0.8-1-1.1c-0.2-0.3-0.9-3.1-1.6-6.3c-0.7-3.2-1.4-6.2-1.6-6.9c-0.2-0.6-2.6-11.2-5.4-23.4c-2.8-12.3-5.3-23-5.5-23.8
		c-0.2-0.8-1-4.5-1.9-8.2c-0.9-3.6-5-21.6-9.2-39.9c-4.9-21.4-7.7-33.6-7.7-34.3c0-3.3,3.7-5.4,6.6-3.6c0.9,0.5,1.8,1.8,2.1,2.8
		c0.1,0.3,0.2,0.5,0.3,0.5c0.1,0,14,2,39.7,5.7c5.1,0.7,10.4,1.5,11.8,1.7c1.4,0.2,2.6,0.3,2.6,0.3c0,0,0.5-2,1.1-4.4
		c0.6-2.4,1.2-4.6,1.3-4.9c0.7-1.4,2.7-2.4,4.3-2.3c2,0.2,3.8,2,3.9,3.9c0.1,0.7-1.9,9.4-9.3,41.7c-5.2,22.5-9.9,42.6-10.3,44.8
		c-0.5,2.2-3.3,14.4-6.3,27.1c-3,12.7-5.7,24.4-6,26c-0.7,3-1.2,4.2-2.2,4.9l-0.6,0.4v18.5v18.5l1.8,0.9c1.5,0.7,2.1,1.2,3.2,2.3
		c2.1,2.1,3.3,4.9,3.3,7.7c0,5.5-4.9,10.6-10.4,10.9C132.1,12715.3,131.1,12715.2,130.6,12715.2z M134.1,12627.5
		c0.6-2.5,1.3-5.7,1.6-7c3.3-14.3,5.8-25.2,5.8-25.2c-0.2,0-15,8-15.2,8.2c-0.2,0.2-0.1,0.6,0.1,1.6c0.2,0.8,0.9,3.7,1.5,6.5
		c0.6,2.8,1.4,6.1,1.7,7.4c0.3,1.3,1.1,4.8,1.8,7.9c0.8,3.5,1.3,5.5,1.4,5.3C133,12632.3,133.5,12630,134.1,12627.5z M134.4,12596.6
		c6.9-3.7,8-4.3,8-4.7c0-0.1-2.2-0.7-4.8-1.5c-2.6-0.8-7.2-2.1-10.1-2.9c-2.9-0.9-5.3-1.5-5.4-1.5c0,0.1,0.7,3.5,1.7,7.7l1.7,7.6
		l0.6-0.3C126.4,12600.9,130.1,12598.9,134.4,12596.6z M144.7,12581.7c1-4.4,1.8-8,1.8-8c0,0-3,0.8-6.7,1.9
		c-3.7,1.1-9.4,2.8-12.7,3.8c-3.3,1-6.1,1.8-6.1,1.9c-0.1,0.1,0.4,2.1,0.5,2.2c0.1,0.1,4.3,1.3,9.4,2.8c5.1,1.5,9.8,2.8,10.4,3
		c0.6,0.2,1.2,0.4,1.3,0.4C142.7,12589.7,143.7,12586.1,144.7,12581.7z M133.1,12575.3c15-4.5,14.1-4.2,14.2-4.6
		c0-0.2-1.4-0.7-7-2.3c-9.6-2.7-13.5-3.7-19-5.3c-2.6-0.7-4.8-1.3-4.8-1.3c0,0,0.2,1.1,0.5,2.3c0.3,1.3,1.1,4.9,1.9,8.2
		c1.6,7,1.6,6.7,1.7,6.7C120.5,12579,126.2,12577.3,133.1,12575.3z M149,12563.1c0.6-2.8,1.6-7,2.1-9.2c0.5-2.2,0.9-4.1,0.9-4.1
		c-0.1-0.1-36.2,9-36.3,9.1c-0.3,0.3,0.7,0.8,2.7,1.3c1.3,0.3,3.7,1,5.5,1.5c4.1,1.2,9.6,2.7,15.4,4.3c2.5,0.7,5.4,1.5,6.4,1.8
		c1,0.3,1.9,0.5,2,0.6C147.7,12568.2,148.3,12566,149,12563.1z M134,12551.9c10.2-2.5,18.6-4.7,18.6-4.8c0.1-0.1,0.1-0.2,0-0.3
		c-0.1-0.1-1.7-0.4-3.5-0.8c-1.9-0.4-6.3-1.3-9.9-2c-3.5-0.7-9.7-2-13.8-2.8c-4-0.8-8.8-1.8-10.6-2.2c-4-0.8-3.9-0.8-3.9-0.6
		c0,0.1,0.7,3.2,1.6,6.8c0.9,3.7,1.8,7.7,2.1,9c0.3,1.3,0.6,2.3,0.7,2.3C115.4,12556.5,123.8,12554.4,134,12551.9z M155.6,12534.5
		c1.3-5.5,2.3-10,2.2-10.1c-0.1-0.1-2,0.3-12,2.6c-3.6,0.8-7.4,1.7-8.4,1.9c-0.9,0.2-4.7,1.1-8.4,1.9c-3.6,0.8-9.2,2.1-12.4,2.8
		c-6.8,1.6-6.5,1.5-6.5,1.8c0,0.2,0.7,0.4,2,0.6c4.6,0.9,11.6,2.4,15.9,3.3c2.6,0.5,6.7,1.4,9.3,1.9c2.6,0.5,7,1.4,10,2
		c2.9,0.6,5.4,1.1,5.6,1.1C153.2,12544.5,153.7,12542.5,155.6,12534.5z M113.9,12532.1c2-0.5,5.6-1.3,7.9-1.8
		c2.4-0.5,4.8-1.1,5.4-1.2c0.6-0.2,4-0.9,7.4-1.7c6-1.4,17.5-4,21.7-5c1.9-0.4,2.3-0.6,2.1-0.7c0,0-3.4-0.6-7.5-1.1
		c-10.4-1.5-35.4-5.1-40.9-5.9c-2.5-0.4-4.7-0.6-4.7-0.6c-0.1,0,3.5,15.6,4.2,18.5c0.1,0.2,0.2,0.4,0.4,0.4
		C110.1,12532.9,111.9,12532.5,113.9,12532.1z"/>
</g>
</svg>
